<svg width="120" height="120" viewBox="0 0 120 120" fill="none" xmlns="http://www.w3.org/2000/svg">
<path d="M49.8545 49.3191C41.0097 49.3191 33.8132 56.5168 33.8132 65.3653C33.8132 66.3515 34.6124 67.1519 35.5998 67.1519H64.1056C65.0918 67.1519 65.8922 66.3515 65.8922 65.3653C65.8922 56.518 58.6982 49.3191 49.8545 49.3191ZM37.5139 63.5787C38.3822 57.5447 43.5859 52.8923 49.8545 52.8923C56.1219 52.8923 61.3221 57.5447 62.1916 63.5787H37.5139Z" fill="white"/>
<path d="M49.5996 47.9518C54.9666 47.9518 59.333 43.5865 59.333 38.2219C59.333 32.862 54.9666 28.5015 49.5996 28.5015C44.241 28.5015 39.8817 32.862 39.8817 38.2219C39.8817 43.5865 44.241 47.9518 49.5996 47.9518ZM49.5996 32.0747C52.9966 32.0747 55.7598 34.832 55.7598 38.2219C55.7598 41.6164 52.9966 44.3785 49.5996 44.3785C46.211 44.3785 43.4549 41.6164 43.4549 38.2219C43.4549 34.832 46.211 32.0747 49.5996 32.0747Z" fill="white"/>
<path d="M108.056 97.6768L89.4217 79.0543C89.0871 78.7196 88.6321 78.5314 88.158 78.5314C88.158 78.5314 88.158 78.5314 88.1568 78.5314C87.684 78.5314 87.229 78.7196 86.8931 79.0543L83.8356 82.1142L78.3353 76.615C85.0458 69.5578 89.1764 60.028 89.1764 49.5441C89.1764 27.8606 71.5355 10.2195 49.8521 10.2195C28.1699 10.2183 10.5291 27.8594 10.5291 49.543C10.5291 71.2277 28.1699 88.8676 49.8533 88.8676C59.7701 88.8676 68.8353 85.1693 75.7602 79.0912L81.3118 84.6417L78.751 87.2037C78.0542 87.9016 78.0542 89.0332 78.7522 89.7299L97.3852 108.352C97.7199 108.687 98.1749 108.875 98.6489 108.875C99.123 108.875 99.5768 108.687 99.9127 108.352L108.057 100.203C108.392 99.8684 108.58 99.4134 108.58 98.9394C108.579 98.4653 108.391 98.0115 108.056 97.6768ZM14.1023 49.543C14.1023 29.8294 30.14 13.7915 49.8533 13.7915C69.5667 13.7915 85.6044 29.8294 85.6044 49.543C85.6044 69.2565 69.5667 85.2944 49.8533 85.2944C30.14 85.2944 14.1023 69.2565 14.1023 49.543ZM98.6466 104.562L82.5422 88.465L88.1604 82.8431L104.266 98.9406L98.6466 104.562Z" fill="white"/>
</svg>
