<svg width="120" height="120" viewBox="0 0 120 120" fill="none" xmlns="http://www.w3.org/2000/svg">
<path d="M31.9569 49.6043C31.9569 52.906 34.6427 55.5931 37.9455 55.5931C41.2482 55.5931 43.934 52.906 43.934 49.6043C43.934 46.3026 41.247 43.6155 37.9455 43.6155C34.6439 43.6155 31.9569 46.3026 31.9569 49.6043ZM40.4729 49.6043C40.4729 50.9979 39.339 52.1318 37.9455 52.1318C36.552 52.1318 35.4181 50.9979 35.4181 49.6043C35.4181 48.2107 36.552 47.0768 37.9455 47.0768C39.339 47.0768 40.4729 48.2107 40.4729 49.6043Z" fill="white"/>
<path d="M91.0279 31.0269C90.1882 30.5719 89.1377 30.878 88.6791 31.7165C88.2206 32.555 88.5303 33.6068 89.3687 34.0653C101.26 40.5556 108.359 51.0288 108.359 62.081C108.359 72.2648 104.289 79.7841 95.1632 86.4626C94.8249 86.7115 94.5879 87.0748 94.495 87.4834L91.0838 102.851H84.6987L82.6656 95.0194C82.5417 94.5465 82.2249 94.1463 81.7913 93.92C81.3578 93.6937 80.8456 93.6627 80.3883 93.8319C74.7237 95.9365 70.4312 96.6119 62.7192 96.6119C55.3978 96.6119 50.1644 96.0973 43.4921 93.3864C43.0241 93.1946 42.4964 93.2185 42.0486 93.4507C41.5996 93.6818 41.2744 94.0987 41.1577 94.5894L39.1949 102.852H32.8657L29.5045 86.2732C29.414 85.8277 29.152 85.4359 28.7756 85.1822C14.3664 75.4748 7.0617 67.099 7.0617 60.286V53.7505C7.0617 50.9455 9.04717 48.6633 11.4864 48.6633H19.1722L19.3223 48.6621C19.3902 48.6609 19.4521 48.6574 19.5188 48.6633C20.1798 48.7241 20.8254 48.4037 21.1684 47.8296C23.6577 43.6727 27.2654 39.9267 31.8902 36.6964C32.3535 36.3725 32.6298 35.8424 32.6298 35.2779V20.8883C38.803 21.5327 43.1527 25.5586 44.8237 29.5523C45.1918 30.4337 46.2065 30.8494 47.0879 30.4813C47.9693 30.1121 48.3861 29.0985 48.0169 28.2171C45.7527 22.8024 39.5819 17.3376 30.8992 17.3376C29.9428 17.3376 29.1687 18.1119 29.1687 19.0683V34.3857C24.7999 37.5576 21.2923 41.1892 18.7244 45.202H11.4864C7.13792 45.202 3.60052 49.0373 3.60052 53.7505V60.286C3.60052 72.0075 19.9881 83.4229 26.2518 87.6549L29.7535 104.926C29.9166 105.732 30.6253 106.312 31.4495 106.312H40.5622C41.3637 106.312 42.0605 105.762 42.2463 104.982L44.0674 97.3146C50.393 99.6122 55.6467 100.072 62.7192 100.072C69.2413 100.072 73.8733 99.6885 79.7892 97.7136L81.6853 105.016C81.883 105.78 82.5715 106.312 83.3599 106.312H92.4726C93.2837 106.312 93.9864 105.748 94.1627 104.957L97.7358 88.865C107.34 81.6506 111.821 73.1236 111.821 62.081C111.821 49.7413 104.047 38.1329 91.0279 31.0269Z" fill="white"/>
<path d="M56.777 35.9377C57.3011 35.9662 57.7894 35.7554 58.1348 35.3743C60.4836 32.7979 64.2496 31.2603 68.2075 31.2603C72.1332 31.2603 75.7778 32.7932 78.2075 35.466C78.535 35.8281 79.0019 36.0329 79.4878 36.0329C79.5117 36.0329 79.5343 36.0329 79.5581 36.0318C80.0703 36.0115 80.5467 35.765 80.8599 35.3588C83.0252 32.5478 84.1686 29.1818 84.1675 25.6264C84.1675 16.8254 77.0069 9.66577 68.2075 9.66577C59.408 9.66577 52.2475 16.8254 52.2475 25.6264C52.2475 29.1341 53.3647 32.4644 55.4776 35.254C55.7873 35.6625 56.2637 35.9138 56.777 35.9377ZM68.2075 13.1259C75.0989 13.1259 80.7063 18.7335 80.7063 25.6264C80.7075 27.7561 80.1846 29.7976 79.1806 31.6235C76.2137 29.1723 72.3249 27.7989 68.2087 27.7989C64.0341 27.7989 60.1286 29.1377 57.1856 31.5271C56.2161 29.7237 55.7099 27.7156 55.7099 25.6252C55.7087 18.7335 61.3149 13.1259 68.2075 13.1259Z" fill="white"/>
</svg>
