<svg width="120" height="120" viewBox="0 0 120 120" fill="none" xmlns="http://www.w3.org/2000/svg">
<path d="M86.107 90.8516H35.0436C34.0562 90.8516 33.257 91.652 33.257 92.6382C33.257 93.6244 34.0562 94.4248 35.0436 94.4248H86.107C87.0932 94.4248 87.8936 93.6244 87.8936 92.6382C87.8936 91.652 87.0932 90.8516 86.107 90.8516Z" fill="white"/>
<path d="M88.1032 76.2275C94.0741 69.5157 97.7128 60.6837 97.7128 51.0145V38.6235C97.7128 37.6361 96.9124 36.8369 95.9262 36.8369H23.5415C22.5541 36.8369 21.7549 37.6361 21.7549 38.6235V40.9688C13.9415 41.8597 7.85034 48.506 7.85034 56.5566C7.85034 65.2099 14.8895 72.2504 23.5415 72.2504C23.713 72.2504 23.8833 72.2254 24.0477 72.1766L27.5494 71.1427C28.6809 72.9448 29.9565 74.6457 31.3644 76.2275C16.5999 79.5256 8.21004 85.0368 8.21004 91.5473C8.21004 100.373 26.2678 109.754 59.7332 109.754C93.1998 109.754 111.258 100.373 111.258 91.5473C111.258 85.038 102.867 79.5268 88.1032 76.2275ZM25.3281 40.4102H94.1384V51.0145C94.1384 60.7886 90.0352 69.6157 83.4688 75.8856C83.3557 75.969 83.2556 76.0667 83.1651 76.1751C77.0168 81.9042 68.7794 85.4203 59.732 85.4203C50.6752 85.4203 42.4294 81.8971 36.2799 76.156C36.2037 76.0679 36.1191 75.9869 36.0274 75.9154C29.4432 69.6443 25.3281 60.804 25.3281 51.0157V40.4102ZM23.2925 68.6748C16.725 68.5414 11.4235 63.1553 11.4235 56.5566C11.4235 50.4797 15.9198 45.4485 21.7549 44.5802V51.0157C21.7549 57.0986 23.2008 62.8468 25.7533 67.9494L23.2925 68.6748ZM59.7332 106.181C31.4752 106.181 11.7832 98.4687 11.7832 91.5473C11.7832 86.858 20.827 81.9626 34.3683 79.2517C41.0978 85.3024 49.9915 88.9924 59.732 88.9924C69.4738 88.9924 78.3687 85.3024 85.0982 79.2505C98.6406 81.965 107.684 86.8603 107.684 91.5473C107.684 98.4699 87.9913 106.181 59.7332 106.181Z" fill="white"/>
<path d="M42.62 28.4158C43.6074 28.4158 44.4066 27.6166 44.4066 26.6292V9.65968C44.4066 8.67227 43.6074 7.87305 42.62 7.87305C41.6326 7.87305 40.8334 8.67227 40.8334 9.65968V26.6292C40.8334 27.6166 41.6338 28.4158 42.62 28.4158Z" fill="white"/>
<path d="M60.5754 28.4158C61.5627 28.4158 62.3619 27.6166 62.3619 26.6292V9.65968C62.3619 8.67227 61.5627 7.87305 60.5754 7.87305C59.588 7.87305 58.7888 8.67227 58.7888 9.65968V26.6292C58.7888 27.6166 59.588 28.4158 60.5754 28.4158Z" fill="white"/>
<path d="M78.5306 28.4087C79.5168 28.4087 80.3172 27.6095 80.3172 26.622V9.65138C80.3172 8.66397 79.5168 7.86475 78.5306 7.86475C77.5444 7.86475 76.744 8.66397 76.744 9.65138V26.622C76.744 27.6095 77.5432 28.4087 78.5306 28.4087Z" fill="white"/>
</svg>
