<svg width="120" height="120" viewBox="0 0 120 120" fill="none" xmlns="http://www.w3.org/2000/svg">
<path d="M64.9702 11.1472C64.4166 10.798 63.7182 10.7789 63.1479 11.0946C62.5751 11.4103 62.2211 12.0118 62.2211 12.6647V22.6089H55.3048C54.9006 22.6089 54.5072 22.7464 54.1903 22.9975L33.0178 39.796C32.5885 40.1368 32.3386 40.6533 32.3386 41.201V49.7952C32.3386 50.2723 32.5288 50.7303 32.8684 51.0675C33.2068 51.4035 33.6444 51.5709 34.1431 51.5888L56.2626 51.4501C53.8997 53.0645 51.0442 55.3903 47.7917 58.7337C41.4397 65.2639 38.1274 74.8338 36.4676 81.7132C36.3385 82.2465 36.4617 82.8109 36.8025 83.2426C37.1421 83.6743 37.6622 83.9266 38.2123 83.9266L76.3194 83.9182C76.8718 83.9182 77.3932 83.6635 77.734 83.2283C78.0748 82.793 78.1944 82.2238 78.0592 81.6881C76.8407 76.8356 76.2548 72.7974 76.3624 70.0112C76.4378 68.0573 77.6706 66.5171 79.3758 64.3838C82.5063 60.4676 86.7944 55.1045 86.749 43.1753C86.6724 25.0387 65.8563 11.7056 64.9702 11.1472ZM76.5729 62.1453C74.6835 64.5094 72.8982 66.7407 72.7763 69.8737C72.6722 72.5809 73.1003 76.0906 74.0474 80.3321L40.5249 80.3404C42.2181 74.1797 45.2136 66.5279 50.3626 61.2353C58.9411 52.4163 64.2528 51.3868 64.2839 51.3808C65.213 51.2397 65.8754 50.405 65.8025 49.4663C65.7284 48.5324 64.9499 47.8137 64.0148 47.8137C64.0112 47.8137 64.0076 47.8137 64.0028 47.8137L35.9272 47.9907V42.068L55.9301 26.1974H64.0148C65.0049 26.1974 65.8085 25.3951 65.8085 24.4037V16.1384C71.3031 20.3129 83.1102 30.7307 83.1616 43.1908C83.2011 53.8537 79.5265 58.4503 76.5729 62.1453Z" fill="white"/>
<path d="M78.9693 89.2634H36.5729C35.5816 89.2634 34.7793 90.067 34.7793 91.0571C34.7793 91.1121 34.79 91.1635 34.7948 91.2161C34.79 91.27 34.7793 91.3214 34.7793 91.3752L34.7207 103.962C34.7183 104.438 34.906 104.897 35.2432 105.236C35.5792 105.573 36.0372 105.763 36.5143 105.763H78.9693C79.9594 105.763 80.7629 104.959 80.7629 103.969V91.1217C80.7629 91.1109 80.7594 91.1002 80.7594 91.0894C80.7594 91.0786 80.7629 91.0679 80.7629 91.0571C80.7629 90.067 79.9594 89.2634 78.9693 89.2634ZM38.3164 102.178L38.3594 92.8508H77.1756V102.178H38.3164Z" fill="white"/>
<path d="M19.7076 73.0163C19.0081 72.3155 17.8721 72.3155 17.1714 73.0163L10.7405 79.446L4.3096 73.0163C3.60887 72.3155 2.47288 72.3155 1.77335 73.0163C1.07262 73.717 1.07262 74.8518 1.77335 75.5525L8.20425 81.9811L1.77335 88.4097C1.07262 89.1104 1.07262 90.2452 1.77335 90.946C2.12252 91.2963 2.58289 91.4709 3.04207 91.4709C3.50125 91.4709 3.96043 91.2963 4.31079 90.946L10.7417 84.5162L17.1726 90.946C17.523 91.2963 17.9821 91.4709 18.4413 91.4709C18.9005 91.4709 19.3597 91.2963 19.71 90.946C20.4108 90.2452 20.4108 89.1104 19.71 88.4097L13.2791 81.9811L19.71 75.5525C20.4084 74.8518 20.4084 73.7158 19.7076 73.0163Z" fill="white"/>
<path d="M106.87 52.439C100.552 52.439 95.41 57.5797 95.41 63.8982C95.41 70.218 100.552 75.3599 106.87 75.3599C113.189 75.3599 118.331 70.218 118.331 63.8982C118.331 57.5797 113.189 52.439 106.87 52.439ZM106.87 71.7725C102.529 71.7725 98.9974 68.2401 98.9974 63.8982C98.9974 59.5575 102.529 56.0263 106.87 56.0263C111.212 56.0263 114.743 59.5575 114.743 63.8982C114.743 68.2401 111.212 71.7725 106.87 71.7725Z" fill="white"/>
</svg>
