<svg width="120" height="120" viewBox="0 0 120 120" fill="none" xmlns="http://www.w3.org/2000/svg">
<path d="M103.025 43.1977C101.728 22.7839 85.3155 6.32264 64.8503 4.90897C53.2609 4.10578 42.2292 8.00683 33.7856 15.8891C25.4951 23.6266 20.7406 34.5517 20.7406 45.8622C20.7406 47.4973 20.8363 49.1336 21.0255 50.7364L12.6572 67.7291C11.9821 69.1009 12.0491 70.7025 12.8379 72.0132C13.6279 73.3263 15.0165 74.1355 16.5498 74.181C18.8301 74.2492 20.4174 74.2959 21.5402 74.3055L21.5234 78.7967C21.5234 92.8459 24.9864 100.98 42.629 100.978L50.2743 101.231V111.022C50.2743 112.014 51.0775 112.818 52.0698 112.818C53.0622 112.818 53.8654 112.014 53.8654 111.022V99.4941C53.8654 98.5245 53.0969 97.7309 52.1285 97.6998L42.6865 97.3886C29.0538 97.3886 25.112 93.2194 25.112 78.8038L25.1372 72.4513C25.1372 72.328 25.1252 72.2059 25.1001 72.0838C24.9157 71.1813 24.0766 70.5517 23.1633 70.6582C23.0831 70.6654 23.0053 70.6797 22.9299 70.6965C22.5576 70.7109 21.2469 70.7252 16.654 70.5912C16.2267 70.578 16.0064 70.3158 15.9118 70.1602C15.8185 70.0058 15.6916 69.691 15.8771 69.3152L24.4824 51.84C24.6392 51.5216 24.6979 51.1637 24.6524 50.8118C24.4381 49.1911 24.3292 47.526 24.3292 45.8622C24.3292 35.5428 28.6683 25.5753 36.2334 18.5142C43.9422 11.3189 54.0246 7.75426 64.6001 8.49161C83.2782 9.78199 98.2552 24.8008 99.439 43.4263C100.181 55.0887 95.5787 66.2041 86.8142 73.9212C86.4275 74.2624 86.2049 74.752 86.2049 75.2679L86.1846 111.021C86.1834 112.012 86.9877 112.817 87.9789 112.818H87.9801C88.9712 112.818 89.7744 112.015 89.7756 111.024L89.7995 76.0699C99.0093 67.6393 103.821 55.7064 103.025 43.1977Z" fill="white"/>
<path d="M71.3477 26.9314C71.3429 26.9314 71.3369 26.9314 71.3321 26.9314C67.6321 26.9314 64.2698 28.7113 62.2133 31.5387C60.1425 28.7401 56.7885 26.9745 53.1184 26.9697C53.1136 26.9697 53.1088 26.9697 53.1041 26.9697C50.0661 26.9697 47.2232 28.1404 45.0973 30.2651C43.0277 32.3347 41.8893 35.0722 41.8929 37.975C41.8965 40.7975 42.9343 43.419 44.8124 45.3569C48.7158 49.3825 60.5303 60.6691 61.0306 61.1467C61.3778 61.477 61.8243 61.6434 62.2707 61.6434C62.7196 61.6434 63.1673 61.4758 63.5144 61.1419C64.0124 60.6643 75.7455 49.3849 79.6417 45.3857C81.5486 43.4286 82.5971 40.7892 82.5924 37.9546C82.5852 31.8858 77.5398 26.9398 71.3477 26.9314ZM79.0025 37.9606C79.0049 39.8519 78.3202 41.5995 77.0718 42.8803C73.9547 46.0799 65.4668 54.2782 62.2696 57.3605C59.0544 54.2818 50.5113 46.0751 47.3931 42.8588C46.1662 41.5923 45.4887 39.8567 45.4863 37.9702C45.4839 36.0287 46.2488 34.1948 47.6385 32.8039C49.0845 31.3579 51.0273 30.5607 53.1053 30.5607C53.1077 30.5607 53.1112 30.5607 53.1148 30.5607C56.567 30.5655 59.605 32.835 60.5016 36.0801C60.717 36.8582 61.4257 37.398 62.2324 37.398C62.2348 37.398 62.2384 37.398 62.2408 37.398C63.0524 37.3944 63.7598 36.8486 63.9669 36.0646C64.8371 32.8003 67.8644 30.5224 71.3321 30.5224C71.3357 30.5224 71.3393 30.5224 71.3429 30.5224C75.5611 30.5284 78.9965 33.8657 79.0025 37.9606Z" fill="white"/>
</svg>
