<svg width="120" height="120" viewBox="0 0 120 120" fill="none" xmlns="http://www.w3.org/2000/svg">
<path d="M109.296 42.108C108.661 32.7983 104.895 23.9774 98.6099 17.0798C92.3252 10.1822 83.8918 5.61374 74.6813 4.11735C65.4707 2.62096 56.0248 4.28471 47.8798 8.83799C39.7348 13.3913 33.3698 20.5663 29.82 29.196H13.596C11.9007 29.1992 10.2757 29.8741 9.07686 31.0729C7.87807 32.2717 7.20318 33.8967 7.20001 35.592V57.6C7.20001 60.696 9.49201 63.996 15.9 63.996H18.78L17.46 66.684C17.1175 67.3596 16.9516 68.1108 16.9776 68.8677C17.0036 69.6247 17.2208 70.3627 17.6089 71.0132C17.997 71.6636 18.5434 72.2052 19.1971 72.5876C19.8509 72.9699 20.5909 73.1806 21.348 73.2C23.652 73.272 25.26 73.32 26.388 73.332V77.856C26.388 91.944 29.856 100.092 47.544 100.092L55.212 100.344V107.844C55.212 108.321 55.4017 108.779 55.7392 109.117C56.0768 109.454 56.5346 109.644 57.012 109.644C57.4894 109.644 57.9472 109.454 58.2848 109.117C58.6224 108.779 58.812 108.321 58.812 107.844V98.604C58.8123 98.1369 58.6309 97.6879 58.3062 97.352C57.9815 97.0161 57.5389 96.8196 57.072 96.804L47.604 96.492C33.924 96.444 30 92.256 30 77.808V71.424C30.0047 71.1697 29.9554 70.9173 29.8554 70.6834C29.7554 70.4495 29.607 70.2394 29.4199 70.0671C29.2328 69.8948 29.0113 69.764 28.77 69.6835C28.5287 69.603 28.2731 69.5745 28.02 69.6H27.78C27.42 69.6 26.112 69.6 21.444 69.492C21.295 69.4876 21.1496 69.4457 21.0211 69.3702C20.8925 69.2948 20.7851 69.1882 20.7085 69.0603C20.632 68.9323 20.589 68.7872 20.5833 68.6383C20.5776 68.4894 20.6095 68.3414 20.676 68.208L22.8 63.996H38.844C41.8994 64.0106 44.9082 63.2471 47.587 61.7775C50.2658 60.3079 52.5265 58.1807 54.156 55.596H104.184C102.168 62.3072 98.3048 68.316 93.036 72.936C92.8404 73.1018 92.6824 73.3075 92.5728 73.5393C92.4631 73.7711 92.4042 74.0236 92.4 74.28V106.596C92.4 107.073 92.5897 107.531 92.9272 107.869C93.2648 108.206 93.7226 108.396 94.2 108.396C94.6774 108.396 95.1352 108.206 95.4728 107.869C95.8104 107.531 96 107.073 96 106.596V75.084C100.556 70.9433 104.118 65.827 106.42 60.1171C108.723 54.4071 109.706 48.251 109.296 42.108ZM70.8 7.29603C79.0455 7.89117 86.867 11.1789 93.0614 16.6535C99.2558 22.1281 103.48 29.4862 105.084 37.596H54.204C53.544 36.507 52.7674 35.4931 51.888 34.572C50.2688 32.8662 48.318 31.5094 46.1554 30.5849C43.9927 29.6604 41.6639 29.1878 39.312 29.196H33.744C36.9231 22.1814 42.1855 16.3161 48.8156 12.3977C55.4458 8.47929 63.1218 6.698 70.8 7.29603ZM10.8 57.6V35.592C10.8 34.8505 11.0946 34.1393 11.6189 33.615C12.1433 33.0906 12.8545 32.796 13.596 32.796H16.8V60.396H15.9C14.004 60.396 10.8 60 10.8 57.6ZM38.844 60.396H20.4V32.796H39.324C41.1869 32.7959 43.0304 33.1729 44.7437 33.9044C46.4569 34.6358 48.0043 35.7066 49.2926 37.0521C50.581 38.3976 51.5836 39.99 52.24 41.7334C52.8964 43.4767 53.193 45.3349 53.112 47.196C52.8588 50.7983 51.2422 54.1686 48.5915 56.6209C45.9407 59.0733 42.4551 60.4232 38.844 60.396ZM55.836 51.996C56.3357 50.5074 56.6265 48.9566 56.7 47.388C56.791 45.2896 56.5024 43.1919 55.848 41.196H105.6C105.6 41.58 105.672 41.952 105.696 42.396C105.896 45.6095 105.687 48.8355 105.072 51.996H55.836Z" fill="white"/>
</svg>
